<svg width="112" height="89" viewBox="0 0 112 89" fill="none" xmlns="http://www.w3.org/2000/svg">
<rect width="112" height="89" fill="white"/>
<path d="M41.8006 53.679C42.1539 53.679 42.3306 53.8557 42.3306 54.209V61.417C42.3306 61.8057 42.1539 62 41.8006 62H31.5186C31.1652 62 30.9886 61.8057 30.9886 61.417V54.209C30.9886 53.8557 31.1652 53.679 31.5186 53.679H41.8006ZM52.1004 53.679C52.4537 53.679 52.6304 53.8557 52.6304 54.209V61.417C52.6304 61.8057 52.4537 62 52.1004 62H41.8184C41.465 62 41.2884 61.8057 41.2884 61.417V54.209C41.2884 53.8557 41.465 53.679 41.8184 53.679H52.1004ZM71.4102 26.914L66.0572 32.267L60.6512 26.914L66.0042 21.561L71.4102 26.914ZM66.0572 34.864C69.6965 34.864 72.6998 36.0653 75.0672 38.468C77.4698 40.8707 78.6712 43.8917 78.6712 47.531C78.6712 51.877 77.3462 55.375 74.6962 58.025C72.0462 60.675 68.4952 62 64.0432 62H52.1182C51.7648 62 51.5882 61.8057 51.5882 61.417V54.209C51.5882 53.8557 51.7648 53.679 52.1182 53.679H56.4112C56.4112 53.6437 56.3935 53.626 56.3582 53.626C56.3582 53.626 56.3582 53.6083 56.3582 53.573C54.6622 51.241 53.8142 48.9443 53.8142 46.683C53.8142 43.3263 54.9802 40.5173 57.3122 38.256C59.6442 35.9947 62.5592 34.864 66.0572 34.864ZM64.0962 53.679C66.1455 53.679 67.7532 53.149 68.9192 52.089C70.1205 51.029 70.7212 49.5627 70.7212 47.69C70.7212 46.2413 70.2618 45.04 69.3432 44.086C68.4245 43.0967 67.2762 42.602 65.8982 42.602C64.4495 42.602 63.2658 43.0967 62.3472 44.086C61.4638 45.0753 61.0222 46.2943 61.0222 47.743C61.0222 49.0503 61.6405 50.6227 62.8772 52.46C62.9125 52.5307 63.0362 52.7073 63.2482 52.99C63.4602 53.2727 63.6015 53.5023 63.6722 53.679H64.0962Z" fill="#1C2D44"/>
</svg>
